REM MD5 ac7be4fa91431185cf71e76a6074176d
FILE "Nightruth - Explanation of the Paranormal - 'Yami no Tobira' (Japan).bin" BINARY
  TRACK 01 MODE2/2352
    INDEX 01 00:00:00
  TRACK 02 AUDIO
    INDEX 00 16:47:46
    INDEX 01 16:49:46
  TRACK 03 AUDIO
    INDEX 00 19:00:49
    INDEX 01 19:02:49
REM LEADOUT 23:21:40
